<?xml version="1.0" encoding="utf-8"?>
<svg viewBox="0 0 500 500" xmlns="http://www.w3.org/2000/svg">
  <path fill-rule="evenodd" clip-rule="evenodd" d="M 168.437 52.673 L 168.437 13.796 L 164.867 13.796 C 152.458 13.796 140.443 16.248 128.827 21.107 C 117.262 25.934 106.811 33.059 98.098 42.043 C 89.619 50.535 82.969 60.656 78.551 71.794 L 78.551 71.834 C 74.616 82.41 71.981 93.42 70.698 104.627 L 70.698 104.706 C 69.571 116.034 69.254 127.428 69.749 138.803 C 70.223 150.258 70.46 161.717 70.46 173.133 C 70.46 181.155 68.874 188.661 65.823 195.734 L 65.823 195.773 C 60.001 209.573 49.17 220.679 35.489 226.867 C 28.514 229.9 20.977 231.45 13.367 231.41 L 9.837 231.41 L 9.837 270.287 L 13.404 270.287 C 21.136 270.287 28.474 271.867 35.45 275.067 L 35.489 275.106 C 42.548 278.189 48.536 282.374 53.53 287.67 L 53.611 287.749 C 58.765 292.885 62.848 299.008 65.783 306.12 L 65.823 306.2 C 68.915 313.312 70.46 320.737 70.46 328.562 C 70.46 340.02 70.223 351.476 69.749 362.895 C 69.271 374.589 69.591 386.006 70.698 397.267 L 70.698 397.306 C 72.007 408.487 74.625 419.352 78.509 429.86 L 78.509 429.9 C 82.712 440.687 89.254 450.604 98.098 459.649 C 106.94 468.736 117.207 475.731 128.827 480.59 C 140.443 485.45 152.458 487.901 164.908 487.901 L 168.437 487.901 L 168.437 449.023 L 164.867 449.023 C 156.939 449.023 149.524 447.52 142.545 444.48 C 135.814 441.347 129.681 437.069 124.425 431.838 C 119.321 426.423 115.178 420.184 112.173 413.384 C 109.239 406.274 107.811 398.767 107.811 390.746 C 107.811 381.739 107.931 372.85 108.248 364.197 C 108.565 355.189 108.565 346.418 108.248 337.924 C 108.109 329.456 107.379 321.008 106.067 312.638 C 104.806 304.387 102.571 296.309 99.405 288.579 C 93.233 273.62 83.141 260.588 70.185 250.846 C 83.158 241.112 93.264 228.082 99.446 213.118 C 102.617 205.531 104.798 197.59 106.109 189.332 C 107.416 181.036 108.127 172.62 108.29 164.047 C 108.604 155.355 108.604 146.583 108.29 137.734 C 107.97 128.884 107.811 119.955 107.811 110.947 C 107.672 87.804 121.333 66.788 142.587 57.454 C 149.585 54.255 157.205 52.623 164.908 52.673 L 168.437 52.673 Z M 327.037 449.023 L 327.037 487.901 L 330.604 487.901 C 343.014 487.901 355.029 485.45 366.648 480.59 C 378.265 475.731 388.534 468.736 397.377 459.649 C 406.218 450.564 412.761 440.687 416.925 429.9 L 416.925 429.86 C 420.891 419.352 423.467 408.407 424.774 397.07 L 424.774 396.991 C 425.886 385.927 426.201 374.589 425.727 362.895 C 425.252 351.436 425.012 339.98 425.012 328.562 C 425.012 320.541 426.6 313.036 429.652 305.963 L 429.652 305.923 C 435.465 292.118 446.3 281.01 459.986 274.83 C 466.96 271.798 474.497 270.25 482.107 270.287 L 485.637 270.287 L 485.637 231.41 L 482.07 231.41 C 474.297 231.41 466.963 229.828 459.986 226.629 L 459.943 226.59 C 453.138 223.665 446.999 219.39 441.904 214.027 L 441.824 213.947 C 436.584 208.687 432.446 202.444 429.652 195.576 L 429.652 195.498 C 426.553 188.447 424.96 180.832 424.972 173.133 C 424.972 161.677 425.21 150.218 425.685 138.803 C 426.183 127.336 425.862 115.849 424.737 104.43 L 424.737 104.389 C 423.451 93.263 420.827 82.336 416.925 71.834 L 416.925 71.794 C 412.492 60.654 405.828 50.529 397.337 42.043 C 388.625 33.061 378.171 25.937 366.608 21.107 C 355.196 16.275 342.925 13.791 330.526 13.796 L 327.037 13.796 L 327.037 52.673 L 330.604 52.673 C 338.536 52.673 345.95 54.172 352.891 57.216 C 359.788 60.457 365.816 64.646 371.01 69.86 C 376.045 75.153 380.127 81.314 383.261 88.308 C 386.196 95.422 387.623 102.927 387.623 110.947 C 387.623 119.955 387.502 128.805 387.186 137.496 C 386.87 146.505 386.87 155.276 387.186 163.769 C 387.345 172.54 388.059 180.956 389.366 189.056 C 390.676 197.51 392.896 205.492 396.029 213.118 C 402.215 228.078 412.318 241.112 425.29 250.846 C 412.318 260.586 402.215 273.615 396.029 288.579 C 392.887 296.222 390.653 304.203 389.366 312.361 C 388.059 320.659 387.345 329.075 387.186 337.648 C 386.868 346.416 386.868 355.191 387.186 363.961 C 387.502 372.811 387.661 381.739 387.661 390.746 C 387.792 413.887 374.134 434.897 352.891 444.243 C 345.889 447.442 338.269 449.071 330.567 449.023 L 327.037 449.023 Z" style=""/>
  <g transform="matrix(8.824284, 0, 0, 8.142526, 137.886887, 145.955963)" style="">
    <path d="M 9.096 23.304 C 7.012 23.304 5.049 22.271 3.891 20.617 C 2.429 20.581 1.003 20.041 -0.107 19.079 C -1.423 17.928 -2.179 16.296 -2.179 14.606 C -2.179 13.009 -1.533 11.507 -0.388 10.392 C -0.461 10.005 -0.497 9.616 -0.497 9.218 C -0.497 5.602 2.551 2.668 6.305 2.668 C 6.305 2.668 6.305 2.668 6.317 2.668 C 7.89 2.668 9.402 3.196 10.596 4.136 C 11.559 3.525 12.656 3.244 13.85 3.208 C 15.484 3.208 17.033 3.865 18.153 4.98 C 18.666 4.874 19.19 4.816 19.714 4.816 C 23.774 4.816 27.077 7.998 27.077 11.906 C 27.077 15.815 23.774 18.996 19.714 18.996 C 19.677 18.996 19.653 18.996 19.617 18.996 C 18.495 20.346 16.776 21.18 14.96 21.144 C 14.96 21.144 14.96 21.144 14.948 21.144 C 14.606 21.144 14.277 21.121 13.947 21.062 C 12.778 22.471 10.986 23.304 9.096 23.304 Z M 5.306 18.163 L 5.683 18.903 C 6.317 20.147 7.659 20.957 9.108 20.957 C 10.45 20.957 11.717 20.264 12.4 19.137 L 12.899 18.303 L 13.839 18.621 C 14.204 18.738 14.582 18.796 14.96 18.796 C 14.96 18.796 14.972 18.796 14.972 18.796 C 16.192 18.796 17.337 18.175 17.97 17.165 L 18.385 16.507 L 19.178 16.602 C 19.36 16.626 19.543 16.636 19.726 16.636 C 22.445 16.636 24.651 14.512 24.651 11.894 C 24.651 9.276 22.445 7.152 19.726 7.152 C 19.178 7.152 18.641 7.234 18.129 7.41 L 17.252 7.703 L 16.727 6.987 C 16.069 6.085 14.984 5.556 13.839 5.544 C 12.936 5.567 12.034 5.884 11.376 6.518 L 10.45 7.41 L 9.597 6.459 C 8.768 5.544 7.573 5.016 6.305 5.016 C 6.305 5.016 6.305 5.016 6.305 5.016 C 3.891 5.016 1.94 6.906 1.94 9.218 C 1.94 9.628 2.002 10.051 2.136 10.451 L 2.38 11.225 L 1.721 11.718 C 0.795 12.411 0.258 13.467 0.258 14.594 C 0.258 15.627 0.722 16.626 1.526 17.329 C 2.331 18.033 3.379 18.362 4.452 18.244 L 5.306 18.163 Z" style="stroke-width: 0.967;"/>
  </g>
</svg>